<svg width="1697" height="200" viewBox="0 0 1697 200" fill="none" xmlns="http://www.w3.org/2000/svg">
<path d="M1354.8 111.4V2.79967H1387.7V122.7C1387.7 130.2 1387.7 138 1389.8 145.5C1391.6 151.7 1395.2 158.1 1400.9 161.7C1408.1 166.8 1417.3 167.9 1425.7 167.7C1434.7 167.7 1444.5 165.9 1451.4 159.6C1457.6 153.9 1460.4 145.5 1461.2 137.5C1461.8 130 1461.8 122.6 1461.8 115.1V2.79967H1494.4V115.8C1494.4 127.8 1495 140 1492.6 151.7C1490.2 164.3 1484.2 176.8 1474.3 185.2C1462.6 195.4 1446.8 198.6 1431.8 199.9H1417.5C1405.5 199 1393.3 196.9 1382.8 190.7C1370.8 184.1 1362.5 172.2 1358.9 159.3C1353.6 144 1354.8 127.5 1354.8 111.4ZM1212.8 2.79967H1326.2V33.8997H1246V80.1997H1323.2V111.3H1246V165.2H1326.1V196.3H1212.7V2.79967H1212.8ZM893.099 2.79967H925.999V128.1C925.999 137.9 927.199 148.4 933.499 156.5C938.899 163.7 947.799 166.7 956.499 167.6C973.099 169.1 991.499 165.4 996.799 147.6C1000.1 138.4 999.499 128.2 999.499 118.6V2.79967H1032.4V125.4C1032.4 135 1032.1 144.8 1030 154.1C1023.9 184.5 998.999 199 969.599 200.2H954.999C926.499 198.9 902.499 186 895.499 156.9C891.599 142.8 892.499 128.2 892.499 113.6L893.099 2.79967ZM691.199 2.79967H728.599L774.699 87.4997L820.799 2.79967H857.999V196.6H825.399V72.1997C825.399 64.4997 826.299 56.3997 827.199 48.5997C823.299 58.7997 787.399 123.7 787.399 123.7H761.699L721.599 48.3997C723.099 57.9997 723.699 67.5997 723.699 77.0997V196.4H691.399L691.199 2.79967ZM337.999 2.79967H370.899V82.3997L431.599 4.59967C432.199 3.69967 432.799 2.49967 434.299 2.79967H474.399C474.099 3.69967 473.799 4.59967 473.199 5.19967L400.299 95.7997L475.999 193.9C476.599 194.8 476.899 195.4 477.199 196.6H435.899L370.999 110.2V196.6H338.099L337.999 2.79967ZM260.799 2.79967H293.699C292.999 22.3997 295.199 131.6 292.499 148.8C290.399 162.9 283.799 176.3 272.699 185.3C261.399 195.2 245.899 199.1 230.899 200H217.099C200.099 199.1 182.999 194.6 168.099 186.2V152.4C168.099 152.4 170.799 153.3 172.299 153.9C193.599 165.2 232.999 176.3 252.699 157.5C258.699 151.3 261.099 142.2 261.099 133.9L260.799 2.79967ZM168.099 2.79967H200.999V123.3H168.399C168.499 123.3 168.099 2.79967 168.099 2.79967ZM33.5992 33.5997V94.2997H58.0992C67.6992 93.6997 78.0992 92.4997 85.8992 86.1997C92.4992 81.0997 94.8992 72.3997 94.8992 64.3997C95.6992 28.8997 58.1992 33.8997 33.5992 33.5997ZM0.699219 2.79967C38.7992 5.59967 101.699 -9.50033 122.699 32.9997C133.999 59.6997 131.399 98.5997 103.499 114L137.899 196.9H102.299L73.5992 123.6C60.3992 125.7 46.9992 124.5 33.7992 124.8V196.9H0.699219V2.79967ZM1123.4 -0.500331C1141.3 -1.00033 1160.5 1.29967 1176 10.7997V44.5997C1154.3 32.5997 1122.7 23.4997 1100.9 39.4997C1091.9 47.5997 1091.9 63.9997 1101.8 71.4997C1110.5 78.3997 1121.6 81.0997 1131.7 84.8997C1145.8 89.6997 1160.1 95.0997 1170 106.4C1188.5 128.4 1184.2 165.4 1162.5 183.6C1133.9 206.3 1090.4 204.5 1059.6 186.9V153.1C1082.8 165.9 1115.2 176.6 1139.1 160.3C1148.1 153.1 1150.2 138.2 1142.7 129.2C1125.9 113.2 1099.4 113.6 1080.8 99.8997C1059.8 86.5997 1055.7 57.6997 1063.8 35.5997C1072.6 11.7997 1099.6 0.699669 1123.4 -0.500331ZM552.999 -0.500331H565.799C579.599 0.699669 593.599 3.69967 605.599 10.7997V44.2997C588.699 34.6997 569.099 28.6997 549.399 31.4997C542.199 32.3997 535.099 34.7997 529.999 39.8997C524.299 45.5997 522.799 54.5997 525.199 61.9997C527.299 68.5997 533.299 73.0997 539.299 75.7997C556.299 83.8997 575.499 86.8997 591.099 97.8997C614.699 113.3 616.999 149 602.799 171.5C590.899 190.3 568.799 197.9 547.799 199.6H534.999C519.199 198.4 503.299 194.8 489.599 186.4V152.6C494.099 154.7 498.299 157.4 502.799 159.2C521.799 167.6 553.599 173.9 570.399 158.6C577.299 152.4 579.099 141.6 575.499 133.2C572.799 127 566.499 123 560.599 120.4C539.799 111 514.499 108 499.699 88.9997C483.999 68.4997 486.999 34.3997 505.899 16.8997C518.699 5.79967 536.299 0.699669 552.999 -0.500331ZM1529.1 3.09967H1566.5L1612.6 87.7997L1658.7 3.09967H1696.1V196.9H1663.5V72.4997C1663.5 64.7997 1664.4 56.6997 1665.3 48.8997C1661.4 59.0997 1625.5 124 1625.5 124H1599.8L1559.7 48.6997C1561.2 58.2997 1561.8 67.8997 1561.8 77.3997V196.7H1529.5L1529.1 3.09967Z" fill="white"/>
</svg>
